<?xml version="1.0" encoding="UTF-8" standalone="no"?>
<svg
   xmlns:dc="http://purl.org/dc/elements/1.1/"
   xmlns:cc="http://creativecommons.org/ns#"
   xmlns:rdf="http://www.w3.org/1999/02/22-rdf-syntax-ns#"
   xmlns:svg="http://www.w3.org/2000/svg"
   xmlns="http://www.w3.org/2000/svg"
   xmlns:sodipodi="http://sodipodi.sourceforge.net/DTD/sodipodi-0.dtd"
   xmlns:inkscape="http://www.inkscape.org/namespaces/inkscape"
   version="1.0"
   width="3242.000000pt"
   height="2000.000000pt"
   viewBox="0 0 3242.000000 2000.000000"
   preserveAspectRatio="xMidYMid meet"
   id="svg2"
   inkscape:version="0.48.5 r10040"
   sodipodi:docname="pyca-trace.svg">
  <defs
     id="defs18" />
  <sodipodi:namedview
     pagecolor="#ffffff"
     bordercolor="#666666"
     borderopacity="1"
     objecttolerance="10"
     gridtolerance="10"
     guidetolerance="10"
     inkscape:pageopacity="0"
     inkscape:pageshadow="2"
     inkscape:window-width="1600"
     inkscape:window-height="879"
     id="namedview16"
     showgrid="false"
     inkscape:zoom="0.21706128"
     inkscape:cx="1931.2156"
     inkscape:cy="977.90665"
     inkscape:window-x="0"
     inkscape:window-y="0"
     inkscape:window-maximized="1"
     inkscape:current-layer="svg2" />
  <metadata
     id="metadata4">
Created by potrace 1.11, written by Peter Selinger 2001-2013
<rdf:RDF>
  <cc:Work
     rdf:about="">
    <dc:format>image/svg+xml</dc:format>
    <dc:type
       rdf:resource="http://purl.org/dc/dcmitype/StillImage" />
  </cc:Work>
</rdf:RDF>
</metadata>
  <path
     style="fill:#5a0000;stroke:none;fill-opacity:1"
     inkscape:connector-curvature="0"
     id="path8"
     d="m 2462,165.1 c -170.9,8.7 -336.5,70.8 -471.5,176.8 -51.7,40.5 -102.4,91.2 -142.6,142.6 -138.2,176.5 -199.5,399.9 -170.9,623.1 13.8,107.4 49.9,214.6 103.9,308.3 125.1,217.1 340.5,367.1 585.6,408.1 49.7,8.3 86.6,11.3 139.5,11.3 41.7,0 65.4,-1.3 102,-5.8 152.9,-18.9 297,-79.2 417.5,-175 19,-15 42.9,-35.9 56.8,-49.5 l 10.8,-10.5 -0.3,-58.7 -0.3,-58.8 -12.2,14.3 c -104.4,122.4 -247.1,209 -403.9,245.3 -40,9.2 -68.6,13.6 -114.4,17.6 -19.3,1.7 -92.6,1.7 -112.5,0 -80.4,-6.8 -150.3,-23 -222.5,-51.5 -157.4,-62.1 -292.5,-179.3 -377.2,-327.2 -54.8,-95.6 -86.7,-197.2 -97.5,-310.5 -2.5,-26.5 -2.5,-103.5 0,-130 6.2,-64.7 17.7,-119.2 37.7,-178.4 54.3,-160.9 163.9,-300.7 308.2,-393.4 99,-63.6 214.6,-104.1 329.8,-115.6 46.3,-4.6 102.2,-5 146,-1 132.4,12 260.6,59.4 369,136.4 48.2,34.2 98.1,79.6 135,122.7 l 14.5,17 0.3,-58.9 0.2,-58.9 -11.7,-11.3 C 3016.9,331.7 2933.2,275.4 2849.5,237.7 2728.1,183.1 2595.5,158.3 2462,165.1 z" />
  <path
     style="fill:#000000;stroke:none"
     inkscape:connector-curvature="0"
     id="path10"
     d="m 164,999.9 0,400.1 54.5,0 54.5,0 0,-160.5 0,-160.5 68.3,0 c 92.2,0 116.4,-1.2 149.7,-7.1 C 615.8,1049.9 681,970 681,839 681,705.8 612.8,625.8 481.5,604.9 c -26.8,-4.2 -26,-4.2 -174.7,-4.6 l -142.8,-0.4 0,400 z M 438.7,691.5 c 53.8,6.9 91.7,31.6 111.6,72.7 8.8,18.2 12.9,34.7 14.8,59.1 1.4,17.3 0.3,39.7 -2.7,54.5 -11.8,58.7 -49.9,95.5 -110.9,107.2 -17.9,3.4 -33.7,4 -107.1,4 l -71.4,0 0,-149.5 0,-149.5 76.9,0 c 62.9,0 79.2,0.3 88.8,1.5 z" />
  <path
     style="fill:#000000;stroke:none"
     inkscape:connector-curvature="0"
     id="path12"
     d="m 810,600.5 c 0,0.3 63.4,94.4 141,209.2 l 141,208.8 0,190.7 0,190.8 55,0 55,0 0,-190.3 0,-190.4 120.1,-177.9 c 66.1,-97.8 129.8,-192.2 141.6,-209.7 l 21.4,-31.7 -58.8,0 -58.9,0 -109.4,163.5 c -60.2,89.9 -109.8,163.4 -110.2,163.3 -0.3,-0.2 -50.1,-73.7 -110.5,-163.3 l -109.9,-163 -58.7,-0.3 c -32.3,-0.1 -58.7,0 -58.7,0.3 z" />
  <path
     style="fill:#000000;stroke:none"
     inkscape:connector-curvature="0"
     id="path14"
     d="m 2291.9,999.1 c -83.8,219.5 -152.6,399.6 -152.7,400 -0.2,0.5 24.6,0.8 57.4,0.7 l 57.8,-0.3 36.2,-102 36.2,-102 179.9,-0.2 179.8,-0.3 36,101.6 c 19.8,55.8 36.3,102 36.6,102.5 0.3,0.6 22.6,0.8 57.1,0.7 l 56.5,-0.3 -152.2,-399.5 -152.3,-399.5 -61.9,-0.3 -62,-0.2 -152.4,399.1 z m 287.4,-92.5 c 40,108.2 72.6,196.8 72.4,197 -0.2,0.2 -65.9,0.3 -145.9,0.2 l -145.6,-0.3 72.6,-196.8 c 39.9,-108.2 72.8,-196.7 73.1,-196.7 0.3,0 33.3,88.5 73.4,196.6 z" />
</svg>
